<?xml version="1.0" encoding="UTF-8"?>
<svg id="Layer_1" xmlns="http://www.w3.org/2000/svg" version="1.1" viewBox="0 0 1565.23 2265">
  <!-- Generator: Adobe Illustrator 29.8.2, SVG Export Plug-In . SVG Version: 2.1.1 Build 3)  -->
  <defs>
    <style>
      .st0 {
        fill: none;
        stroke: #3a50a3;
        stroke-miterlimit: 10;
        stroke-width: 10px;
      }
    </style>
  </defs>
  <g>
    <path class="st0" d="M5,1358"/>
    <path class="st0" d="M5,1358c95.43,0,172.8,201.92,172.8,451v-451s-172.8,0-172.8,0Z"/>
  </g>
  <g>
    <path class="st0" d="M1214.59,5.01"/>
    <path class="st0" d="M1214.59,5.02c95.43,0,172.8,201.92,172.8,451V5.01"/>
  </g>
  <g>
    <path class="st0" d="M1041.79,456.02"/>
    <path class="st0" d="M1214.59,5.02"/>
    <line class="st0" x1="1041.79" y1="456.02" x2="1041.79" y2="5.02"/>
  </g>
  <g>
    <path class="st0" d="M5,2260"/>
    <path class="st0" d="M5,2259.99c95.43,0,172.8-201.92,172.8-451v451"/>
  </g>
  <g>
    <path class="st0" d="M1214.59,907.02"/>
    <path class="st0" d="M1214.59,907.02c95.43,0,172.8-201.92,172.8-451v451"/>
  </g>
  <g>
    <g>
      <path class="st0" d="M868.99,1358"/>
      <path class="st0" d="M868.99,1358c95.43,0,172.8,201.92,172.8,451v-451"/>
    </g>
    <g>
      <path class="st0" d="M868.99,2260"/>
      <path class="st0" d="M868.99,2259.99c95.43,0,172.8-201.92,172.8-451v451"/>
    </g>
  </g>
  <g>
    <g>
      <path class="st0" d="M1387.43,1358.05"/>
      <path class="st0" d="M1387.43,1358.06c95.43,0,172.8,201.92,172.8,451v-451"/>
    </g>
    <line class="st0" x1="1560.23" y1="2260.05" x2="1560.23" y2="1809.05"/>
  </g>
  <g>
    <g>
      <path class="st0" d="M1041.79,1358"/>
      <path class="st0" d="M1041.79,1358.01c95.43,0,172.8,201.92,172.8,451v-901.99"/>
    </g>
    <g>
      <path class="st0" d="M1041.79,2260"/>
      <path class="st0" d="M1214.59,2260v-451c0,249.08-77.36,451-172.8,451h-172.8"/>
    </g>
  </g>
  <path class="st0" d="M868.99,1358.01"/>
  <g>
    <path class="st0" d="M5,1358"/>
    <path class="st0" d="M5,1357.99c95.43,0,172.8-201.92,172.8-451v451"/>
  </g>
  <g>
    <g>
      <path class="st0" d="M696.19,1358"/>
      <path class="st0" d="M720.26,1358h148.73c95.43,0,172.8-201.91,172.8-450.99v451"/>
      <path class="st0" d="M696.19,1358c95.43,0,172.8,201.92,172.8,451v-451"/>
    </g>
    <g>
      <path class="st0" d="M696.19,2260"/>
      <path class="st0" d="M696.19,2260c95.43,0,172.8-201.92,172.8-451v451s-172.8,0-172.8,0Z"/>
    </g>
  </g>
  <g>
    <g>
      <path class="st0" d="M177.8,1357.99"/>
      <path class="st0" d="M177.8,1358c95.43,0,172.8,201.92,172.8,451v-451s-172.8,0-172.8,0Z"/>
    </g>
    <g>
      <path class="st0" d="M177.8,2259.99"/>
      <path class="st0" d="M350.6,2259.99v-451c0,249.08-77.36,451-172.8,451H5"/>
    </g>
  </g>
  <g>
    <g>
      <path class="st0" d="M696.2,1358"/>
      <path class="st0" d="M696.19,1358c-95.43,0-172.8,201.92-172.8,451v-451s172.8,0,172.8,0Z"/>
    </g>
    <g>
      <path class="st0" d="M696.2,2260"/>
      <path class="st0" d="M696.19,2260c-95.43,0-172.8-201.92-172.8-451v451s172.8,0,172.8,0Z"/>
    </g>
  </g>
  <g>
    <g>
      <path class="st0" d="M1041.79,5.01"/>
      <path class="st0" d="M1041.79,5.02c-95.43,0-172.8,201.92-172.8,451V5.01"/>
    </g>
    <g>
      <path class="st0" d="M1041.79,907.01"/>
      <path class="st0" d="M1041.79,907.01c-95.43,0-172.8-201.92-172.8-451v451s172.8,0,172.8,0Z"/>
    </g>
  </g>
  <g>
    <g>
      <path class="st0" d="M177.8,5"/>
      <path class="st0" d="M177.8,5c-95.43,0-172.8,201.92-172.8,451"/>
    </g>
    <g>
      <path class="st0" d="M177.8,907"/>
      <path class="st0" d="M177.8,907c-95.43,0-172.8-201.92-172.8-451"/>
    </g>
  </g>
  <g>
    <g>
      <path class="st0" d="M869,5.01"/>
      <path class="st0" d="M868.99,5.01c-95.43,0-172.8,201.92-172.8,451"/>
    </g>
    <g>
      <path class="st0" d="M869,907.01"/>
      <path class="st0" d="M868.99,907c-95.43,0-172.8-201.92-172.8-451v451"/>
    </g>
  </g>
  <g>
    <g>
      <path class="st0" d="M350.6,5"/>
      <path class="st0" d="M350.6,5.01c-95.43,0-172.8,201.92-172.8,451V5"/>
    </g>
    <g>
      <path class="st0" d="M350.6,907"/>
      <path class="st0" d="M350.6,907c-95.43,0-172.8-201.92-172.8-451v451s172.8,0,172.8,0Z"/>
    </g>
  </g>
  <path class="st0" d="M523.4,1358c0-249.08,77.36-451,172.8-451v451h-172.8Z"/>
  <path class="st0" d="M1214.59,1358.01"/>
  <path class="st0" d="M1214.59,907.01"/>
  <path class="st0" d="M1041.79,1358.01"/>
  <path class="st0" d="M1560.19,1358.01h-172.8c0-249.08,77.36-451,172.8-451"/>
  <path class="st0" d="M177.8,1358c0-249.08,77.36-451,172.8-451v451"/>
  <path class="st0" d="M350.6,907h172.8c0,249.08-77.36,451-172.8,451"/>
  <path class="st0" d="M696.19,907h172.8c0,249.08-77.36,451-172.8,451"/>
  <path class="st0" d="M1387.39,907.01c0,249.08-77.36,451-172.8,451h-322.8"/>
  <path class="st0" d="M1214.59,907.01"/>
  <g>
    <path class="st0" d="M523.4,1809c0,249.08-77.36,451-172.8,451v-451"/>
    <path class="st0" d="M350.6,1809c0-249.08,77.36-451,172.8-451v451"/>
  </g>
  <g>
    <path class="st0" d="M1560.19,456.02c0,249.08-77.36,451-172.8,451v-451"/>
    <path class="st0" d="M1387.39,456.02c0-249.08,77.36-451,172.8-451v451"/>
  </g>
  <g>
    <path class="st0" d="M1387.39,1809.01c0,249.08-77.36,451-172.8,451v-451"/>
    <path class="st0" d="M1214.59,1809.01c0-249.08,77.36-451,172.8-451v451"/>
  </g>
  <g>
    <path class="st0" d="M1214.59,456.01c0,249.08-77.36,451-172.8,451v-451"/>
    <path class="st0" d="M1041.79,456.01c0-249.08,77.36-451,172.8-451v451"/>
  </g>
  <path class="st0" d="M696.19,456c0,249.08-77.36,451-172.8,451v-451"/>
  <g>
    <path class="st0" d="M523.4,456c0,249.08-77.36,451-172.8,451v-451"/>
    <path class="st0" d="M350.6,456c0-249.08,77.36-451,172.8-451v451"/>
  </g>
  <line class="st0" x1="1216.61" y1="5.01" x2="1560.19" y2="5.01"/>
  <line class="st0" x1="1387.39" y1="907.02" x2="1043.44" y2="907.01"/>
  <path class="st0" d="M1387.39,907.01"/>
  <path class="st0" d="M1041.79,1358.01c0-249.08,77.36-451,172.8-451"/>
  <path class="st0" d="M523.4,456c0-249.08,77.36-451,172.8-451h518.4"/>
  <polyline class="st0" points="5 5 350.6 5 350.6 456"/>
  <path class="st0" d="M1560.23,1809.01c0,249.08-77.36,451-172.8,451h-172.84"/>
  <line class="st0" x1="1560.19" y1="456.02" x2="1560.19" y2="1358.01"/>
</svg>